<?xml version="1.0" encoding="UTF-8" standalone="no"?>
<!DOCTYPE svg PUBLIC "-//W3C//DTD SVG 1.1//EN"
 "http://www.w3.org/Graphics/SVG/1.1/DTD/svg11.dtd">
<!-- Generated by graphviz version 2.47.0 (20210316.0004)
 -->
<!-- Title: dependencies Pages: 1 -->
<svg width="3262pt" height="284pt"
 viewBox="0.00 0.00 3262.00 284.00" xmlns="http://www.w3.org/2000/svg" xmlns:xlink="http://www.w3.org/1999/xlink">
<g id="graph0" class="graph" transform="scale(1 1) rotate(0) translate(4 280)">
<title>dependencies</title>
<polygon fill="white" stroke="transparent" points="-4,4 -4,-280 3258,-280 3258,4 -4,4"/>
<text text-anchor="start" x="1606.01" y="-42.4" font-family="Times-12" font-weight="bold" font-size="14.00">Legend</text>
<polygon fill="#ffffb3" stroke="transparent" points="1393,-10 1393,-30 1413,-30 1413,-10 1393,-10"/>
<text text-anchor="start" x="1416.63" y="-15.4" font-family="Times-12" font-size="14.00"> &#160;Declarations</text>
<polygon fill="#8dd3c7" stroke="transparent" points="1506,-10 1506,-30 1526,-30 1526,-10 1506,-10"/>
<text text-anchor="start" x="1529.73" y="-15.4" font-family="Times-12" font-size="14.00"> &#160;Module</text>
<polygon fill="#80b1d3" stroke="transparent" points="1592,-10 1592,-30 1612,-30 1612,-10 1592,-10"/>
<text text-anchor="start" x="1615.78" y="-15.4" font-family="Times-12" font-size="14.00"> &#160;Bootstrap</text>
<polygon fill="#fdb462" stroke="transparent" points="1689,-10 1689,-30 1709,-30 1709,-10 1689,-10"/>
<text text-anchor="start" x="1712.67" y="-15.4" font-family="Times-12" font-size="14.00"> &#160;Providers</text>
<polygon fill="#fb8072" stroke="transparent" points="1785,-10 1785,-30 1805,-30 1805,-10 1785,-10"/>
<text text-anchor="start" x="1808.73" y="-15.4" font-family="Times-12" font-size="14.00"> &#160;Exports</text>
<g id="clust1" class="cluster">
<title>cluster_AppModule</title>
<polygon fill="none" stroke="black" stroke-dasharray="1,5" points="8,-70 8,-268 2918,-268 2918,-70 8,-70"/>
</g>
<g id="clust2" class="cluster">
<title>cluster_AppModule_declarations</title>
<polygon fill="none" stroke="black" points="356,-78 356,-130 2910,-130 2910,-78 356,-78"/>
</g>
<g id="clust21" class="cluster">
<title>cluster_AppModule_imports</title>
<polygon fill="none" stroke="black" points="204,-78 204,-130 348,-130 348,-78 204,-78"/>
</g>
<g id="clust23" class="cluster">
<title>cluster_AppModule_bootstrap</title>
<polygon fill="none" stroke="black" points="1423,-208 1423,-260 1547,-260 1547,-208 1423,-208"/>
</g>
<g id="clust24" class="cluster">
<title>cluster_AppModule_providers</title>
<polygon fill="none" stroke="black" points="16,-78 16,-130 196,-130 196,-78 16,-78"/>
</g>
<g id="clust31" class="cluster">
<title>cluster_SettingModule</title>
<polygon fill="none" stroke="black" stroke-dasharray="1,5" points="2926,-70 2926,-195 3246,-195 3246,-70 2926,-70"/>
</g>
<g id="clust32" class="cluster">
<title>cluster_SettingModule_declarations</title>
<polygon fill="none" stroke="black" points="3102,-78 3102,-130 3238,-130 3238,-78 3102,-78"/>
</g>
<g id="clust34" class="cluster">
<title>cluster_SettingModule_imports</title>
<polygon fill="none" stroke="black" points="2934,-78 2934,-130 3094,-130 3094,-78 2934,-78"/>
</g>
<!-- AboutComponent -->
<g id="node1" class="node">
<title>AboutComponent</title>
<polygon fill="#ffffb3" stroke="black" points="2902.33,-122 2785.67,-122 2785.67,-86 2902.33,-86 2902.33,-122"/>
<text text-anchor="middle" x="2844" y="-99.8" font-family="Times,serif" font-size="14.00">AboutComponent</text>
</g>
<!-- AppModule -->
<g id="node19" class="node">
<title>AppModule</title>
<polygon fill="#8dd3c7" stroke="black" points="1526.66,-187 1523.66,-191 1502.66,-191 1499.66,-187 1443.34,-187 1443.34,-151 1526.66,-151 1526.66,-187"/>
<text text-anchor="middle" x="1485" y="-164.8" font-family="Times,serif" font-size="14.00">AppModule</text>
</g>
<!-- AboutComponent&#45;&gt;AppModule -->
<g id="edge1" class="edge">
<title>AboutComponent&#45;&gt;AppModule</title>
<path fill="none" stroke="black" d="M2844,-122.15C2844,-145.76 2844,-184 2844,-184 2844,-184 1536.79,-184 1536.79,-184"/>
<polygon fill="black" stroke="black" points="1536.79,-180.5 1526.79,-184 1536.79,-187.5 1536.79,-180.5"/>
</g>
<!-- AppComponent -->
<g id="node2" class="node">
<title>AppComponent</title>
<polygon fill="#ffffb3" stroke="black" points="2767.94,-122 2662.06,-122 2662.06,-86 2767.94,-86 2767.94,-122"/>
<text text-anchor="middle" x="2715" y="-99.8" font-family="Times,serif" font-size="14.00">AppComponent</text>
</g>
<!-- AppComponent&#45;&gt;AppModule -->
<g id="edge2" class="edge">
<title>AppComponent&#45;&gt;AppModule</title>
<path fill="none" stroke="black" d="M2715,-122.01C2715,-144.49 2715,-180 2715,-180 2715,-180 1536.98,-180 1536.98,-180"/>
<polygon fill="black" stroke="black" points="1536.98,-176.5 1526.98,-180 1536.98,-183.5 1536.98,-176.5"/>
</g>
<!-- HomeComponent -->
<g id="node3" class="node">
<title>HomeComponent</title>
<polygon fill="#ffffb3" stroke="black" points="2644.55,-122 2529.45,-122 2529.45,-86 2644.55,-86 2644.55,-122"/>
<text text-anchor="middle" x="2587" y="-99.8" font-family="Times,serif" font-size="14.00">HomeComponent</text>
</g>
<!-- HomeComponent&#45;&gt;AppModule -->
<g id="edge3" class="edge">
<title>HomeComponent&#45;&gt;AppModule</title>
<path fill="none" stroke="black" d="M2587,-122.04C2587,-143.66 2587,-177 2587,-177 2587,-177 1536.85,-177 1536.85,-177"/>
<polygon fill="black" stroke="black" points="1536.85,-173.5 1526.85,-177 1536.85,-180.5 1536.85,-173.5"/>
</g>
<!-- HomeHeaderComponent -->
<g id="node4" class="node">
<title>HomeHeaderComponent</title>
<polygon fill="#ffffb3" stroke="black" points="2510.96,-122 2355.04,-122 2355.04,-86 2510.96,-86 2510.96,-122"/>
<text text-anchor="middle" x="2433" y="-99.8" font-family="Times,serif" font-size="14.00">HomeHeaderComponent</text>
</g>
<!-- HomeHeaderComponent&#45;&gt;AppModule -->
<g id="edge4" class="edge">
<title>HomeHeaderComponent&#45;&gt;AppModule</title>
<path fill="none" stroke="black" d="M2433,-122.13C2433,-142.57 2433,-173 2433,-173 2433,-173 1536.96,-173 1536.96,-173"/>
<polygon fill="black" stroke="black" points="1536.96,-169.5 1526.96,-173 1536.96,-176.5 1536.96,-169.5"/>
</g>
<!-- ItemComponent -->
<g id="node5" class="node">
<title>ItemComponent</title>
<polygon fill="#ffffb3" stroke="black" points="2337.49,-122 2230.51,-122 2230.51,-86 2337.49,-86 2337.49,-122"/>
<text text-anchor="middle" x="2284" y="-99.8" font-family="Times,serif" font-size="14.00">ItemComponent</text>
</g>
<!-- ItemComponent&#45;&gt;AppModule -->
<g id="edge5" class="edge">
<title>ItemComponent&#45;&gt;AppModule</title>
<path fill="none" stroke="black" d="M2284,-122.11C2284,-141.34 2284,-169 2284,-169 2284,-169 1536.83,-169 1536.83,-169"/>
<polygon fill="black" stroke="black" points="1536.83,-165.5 1526.83,-169 1536.83,-172.5 1536.83,-165.5"/>
</g>
<!-- LoadingComponent -->
<g id="node6" class="node">
<title>LoadingComponent</title>
<polygon fill="#ffffb3" stroke="black" points="2212.99,-122 2085.01,-122 2085.01,-86 2212.99,-86 2212.99,-122"/>
<text text-anchor="middle" x="2149" y="-99.8" font-family="Times,serif" font-size="14.00">LoadingComponent</text>
</g>
<!-- LoadingComponent&#45;&gt;AppModule -->
<g id="edge6" class="edge">
<title>LoadingComponent&#45;&gt;AppModule</title>
<path fill="none" stroke="black" d="M2149,-122.27C2149,-140.56 2149,-166 2149,-166 2149,-166 1536.79,-166 1536.79,-166"/>
<polygon fill="black" stroke="black" points="1536.79,-162.5 1526.79,-166 1536.79,-169.5 1536.79,-162.5"/>
</g>
<!-- LoginComponent -->
<g id="node7" class="node">
<title>LoginComponent</title>
<polygon fill="#ffffb3" stroke="black" points="2067.28,-122 1952.72,-122 1952.72,-86 2067.28,-86 2067.28,-122"/>
<text text-anchor="middle" x="2010" y="-99.8" font-family="Times,serif" font-size="14.00">LoginComponent</text>
</g>
<!-- LoginComponent&#45;&gt;AppModule -->
<g id="edge7" class="edge">
<title>LoginComponent&#45;&gt;AppModule</title>
<path fill="none" stroke="black" d="M2010,-122.03C2010,-139.06 2010,-162 2010,-162 2010,-162 1537.08,-162 1537.08,-162"/>
<polygon fill="black" stroke="black" points="1537.08,-158.5 1527.08,-162 1537.08,-165.5 1537.08,-158.5"/>
</g>
<!-- MovieDetailsComponent -->
<g id="node8" class="node">
<title>MovieDetailsComponent</title>
<polygon fill="#ffffb3" stroke="black" points="1934.54,-122 1777.46,-122 1777.46,-86 1934.54,-86 1934.54,-122"/>
<text text-anchor="middle" x="1856" y="-99.8" font-family="Times,serif" font-size="14.00">MovieDetailsComponent</text>
</g>
<!-- MovieDetailsComponent&#45;&gt;AppModule -->
<g id="edge8" class="edge">
<title>MovieDetailsComponent&#45;&gt;AppModule</title>
<path fill="none" stroke="black" d="M1856,-122.01C1856,-138.05 1856,-159 1856,-159 1856,-159 1536.84,-159 1536.84,-159"/>
<polygon fill="black" stroke="black" points="1536.84,-155.5 1526.84,-159 1536.84,-162.5 1536.84,-155.5"/>
</g>
<!-- MoviesComponent -->
<g id="node9" class="node">
<title>MoviesComponent</title>
<polygon fill="#ffffb3" stroke="black" points="1759.83,-122 1636.17,-122 1636.17,-86 1759.83,-86 1759.83,-122"/>
<text text-anchor="middle" x="1698" y="-99.8" font-family="Times,serif" font-size="14.00">MoviesComponent</text>
</g>
<!-- MoviesComponent&#45;&gt;AppModule -->
<g id="edge9" class="edge">
<title>MoviesComponent&#45;&gt;AppModule</title>
<path fill="none" stroke="black" d="M1698,-122.12C1698,-136.78 1698,-155 1698,-155 1698,-155 1536.83,-155 1536.83,-155"/>
<polygon fill="black" stroke="black" points="1536.83,-151.5 1526.83,-155 1536.83,-158.5 1536.83,-151.5"/>
</g>
<!-- NavbarComponent -->
<g id="node10" class="node">
<title>NavbarComponent</title>
<polygon fill="#ffffb3" stroke="black" points="1618.03,-122 1495.97,-122 1495.97,-86 1618.03,-86 1618.03,-122"/>
<text text-anchor="middle" x="1557" y="-99.8" font-family="Times,serif" font-size="14.00">NavbarComponent</text>
</g>
<!-- NavbarComponent&#45;&gt;AppModule -->
<g id="edge10" class="edge">
<title>NavbarComponent&#45;&gt;AppModule</title>
<path fill="none" stroke="black" d="M1511.28,-122.11C1511.28,-122.11 1511.28,-140.99 1511.28,-140.99"/>
<polygon fill="black" stroke="black" points="1507.78,-140.99 1511.28,-150.99 1514.78,-140.99 1507.78,-140.99"/>
</g>
<!-- NetworkComponent -->
<g id="node11" class="node">
<title>NetworkComponent</title>
<polygon fill="#ffffb3" stroke="black" points="1478.31,-122 1347.69,-122 1347.69,-86 1478.31,-86 1478.31,-122"/>
<text text-anchor="middle" x="1413" y="-99.8" font-family="Times,serif" font-size="14.00">NetworkComponent</text>
</g>
<!-- NetworkComponent&#45;&gt;AppModule -->
<g id="edge11" class="edge">
<title>NetworkComponent&#45;&gt;AppModule</title>
<path fill="none" stroke="black" d="M1460.66,-122.11C1460.66,-122.11 1460.66,-140.99 1460.66,-140.99"/>
<polygon fill="black" stroke="black" points="1457.16,-140.99 1460.66,-150.99 1464.16,-140.99 1457.16,-140.99"/>
</g>
<!-- NetworkDetailsComponent -->
<g id="node12" class="node">
<title>NetworkDetailsComponent</title>
<polygon fill="#ffffb3" stroke="black" points="1329.96,-122 1160.04,-122 1160.04,-86 1329.96,-86 1329.96,-122"/>
<text text-anchor="middle" x="1245" y="-99.8" font-family="Times,serif" font-size="14.00">NetworkDetailsComponent</text>
</g>
<!-- NetworkDetailsComponent&#45;&gt;AppModule -->
<g id="edge12" class="edge">
<title>NetworkDetailsComponent&#45;&gt;AppModule</title>
<path fill="none" stroke="black" d="M1245,-122.12C1245,-136.78 1245,-155 1245,-155 1245,-155 1433.2,-155 1433.2,-155"/>
<polygon fill="black" stroke="black" points="1433.2,-158.5 1443.2,-155 1433.2,-151.5 1433.2,-158.5"/>
</g>
<!-- NotFoundComponent -->
<g id="node13" class="node">
<title>NotFoundComponent</title>
<polygon fill="#ffffb3" stroke="black" points="1142.11,-122 1003.89,-122 1003.89,-86 1142.11,-86 1142.11,-122"/>
<text text-anchor="middle" x="1073" y="-99.8" font-family="Times,serif" font-size="14.00">NotFoundComponent</text>
</g>
<!-- NotFoundComponent&#45;&gt;AppModule -->
<g id="edge13" class="edge">
<title>NotFoundComponent&#45;&gt;AppModule</title>
<path fill="none" stroke="black" d="M1073,-122.01C1073,-138.05 1073,-159 1073,-159 1073,-159 1433.23,-159 1433.23,-159"/>
<polygon fill="black" stroke="black" points="1433.23,-162.5 1443.23,-159 1433.23,-155.5 1433.23,-162.5"/>
</g>
<!-- PeopleComponent -->
<g id="node14" class="node">
<title>PeopleComponent</title>
<polygon fill="#ffffb3" stroke="black" points="985.94,-122 866.06,-122 866.06,-86 985.94,-86 985.94,-122"/>
<text text-anchor="middle" x="926" y="-99.8" font-family="Times,serif" font-size="14.00">PeopleComponent</text>
</g>
<!-- PeopleComponent&#45;&gt;AppModule -->
<g id="edge14" class="edge">
<title>PeopleComponent&#45;&gt;AppModule</title>
<path fill="none" stroke="black" d="M926,-122.03C926,-139.06 926,-162 926,-162 926,-162 1432.98,-162 1432.98,-162"/>
<polygon fill="black" stroke="black" points="1432.98,-165.5 1442.98,-162 1432.98,-158.5 1432.98,-165.5"/>
</g>
<!-- RegisterComponent -->
<g id="node15" class="node">
<title>RegisterComponent</title>
<polygon fill="#ffffb3" stroke="black" points="847.98,-122 720.02,-122 720.02,-86 847.98,-86 847.98,-122"/>
<text text-anchor="middle" x="784" y="-99.8" font-family="Times,serif" font-size="14.00">RegisterComponent</text>
</g>
<!-- RegisterComponent&#45;&gt;AppModule -->
<g id="edge15" class="edge">
<title>RegisterComponent&#45;&gt;AppModule</title>
<path fill="none" stroke="black" d="M784,-122.27C784,-140.56 784,-166 784,-166 784,-166 1433.25,-166 1433.25,-166"/>
<polygon fill="black" stroke="black" points="1433.25,-169.5 1443.25,-166 1433.25,-162.5 1433.25,-169.5"/>
</g>
<!-- SearchPipe -->
<g id="node16" class="node">
<title>SearchPipe</title>
<polygon fill="#ffffb3" stroke="black" points="702.47,-122 623.53,-122 623.53,-86 702.47,-86 702.47,-122"/>
<text text-anchor="middle" x="663" y="-99.8" font-family="Times,serif" font-size="14.00">SearchPipe</text>
</g>
<!-- SearchPipe&#45;&gt;AppModule -->
<g id="edge16" class="edge">
<title>SearchPipe&#45;&gt;AppModule</title>
<path fill="none" stroke="black" d="M663,-122.11C663,-141.34 663,-169 663,-169 663,-169 1433.11,-169 1433.11,-169"/>
<polygon fill="black" stroke="black" points="1433.11,-172.5 1443.11,-169 1433.11,-165.5 1433.11,-172.5"/>
</g>
<!-- SeemorePipe -->
<g id="node17" class="node">
<title>SeemorePipe</title>
<polygon fill="#ffffb3" stroke="black" points="605.87,-122 516.13,-122 516.13,-86 605.87,-86 605.87,-122"/>
<text text-anchor="middle" x="561" y="-99.8" font-family="Times,serif" font-size="14.00">SeemorePipe</text>
</g>
<!-- SeemorePipe&#45;&gt;AppModule -->
<g id="edge17" class="edge">
<title>SeemorePipe&#45;&gt;AppModule</title>
<path fill="none" stroke="black" d="M561,-122.13C561,-142.57 561,-173 561,-173 561,-173 1433.2,-173 1433.2,-173"/>
<polygon fill="black" stroke="black" points="1433.2,-176.5 1443.2,-173 1433.2,-169.5 1433.2,-176.5"/>
</g>
<!-- TvShowsComponent -->
<g id="node18" class="node">
<title>TvShowsComponent</title>
<polygon fill="#ffffb3" stroke="black" points="498.22,-122 363.78,-122 363.78,-86 498.22,-86 498.22,-122"/>
<text text-anchor="middle" x="431" y="-99.8" font-family="Times,serif" font-size="14.00">TvShowsComponent</text>
</g>
<!-- TvShowsComponent&#45;&gt;AppModule -->
<g id="edge18" class="edge">
<title>TvShowsComponent&#45;&gt;AppModule</title>
<path fill="none" stroke="black" d="M431,-122.04C431,-143.66 431,-177 431,-177 431,-177 1433.03,-177 1433.03,-177"/>
<polygon fill="black" stroke="black" points="1433.03,-180.5 1443.03,-177 1433.03,-173.5 1433.03,-180.5"/>
</g>
<!-- AppComponent  -->
<g id="node21" class="node">
<title>AppComponent </title>
<polygon fill="#80b1d3" stroke="black" points="1539.44,-252 1430.56,-252 1430.56,-216 1539.44,-216 1539.44,-252"/>
<text text-anchor="middle" x="1485" y="-229.8" font-family="Times,serif" font-size="14.00">AppComponent </text>
</g>
<!-- AppModule&#45;&gt;AppComponent  -->
<g id="edge20" class="edge">
<title>AppModule&#45;&gt;AppComponent </title>
<path fill="none" stroke="black" stroke-dasharray="1,5" d="M1485,-187.11C1485,-187.11 1485,-205.99 1485,-205.99"/>
<polygon fill="black" stroke="black" points="1481.5,-205.99 1485,-215.99 1488.5,-205.99 1481.5,-205.99"/>
</g>
<!-- AppRoutingModule -->
<g id="node20" class="node">
<title>AppRoutingModule</title>
<polygon fill="#8dd3c7" stroke="black" points="340.27,-122 337.27,-126 316.27,-126 313.27,-122 211.73,-122 211.73,-86 340.27,-86 340.27,-122"/>
<text text-anchor="middle" x="276" y="-99.8" font-family="Times,serif" font-size="14.00">AppRoutingModule</text>
</g>
<!-- AppRoutingModule&#45;&gt;AppModule -->
<g id="edge19" class="edge">
<title>AppRoutingModule&#45;&gt;AppModule</title>
<path fill="none" stroke="black" d="M276,-122.01C276,-144.49 276,-180 276,-180 276,-180 1433.03,-180 1433.03,-180"/>
<polygon fill="black" stroke="black" points="1433.03,-183.5 1443.03,-180 1433.03,-176.5 1433.03,-183.5"/>
</g>
<!-- MoviesInterceptor -->
<g id="node22" class="node">
<title>MoviesInterceptor</title>
<ellipse fill="#fdb462" stroke="black" cx="106" cy="-104" rx="82.22" ry="18"/>
<text text-anchor="middle" x="106" y="-99.8" font-family="Times,serif" font-size="14.00">MoviesInterceptor</text>
</g>
<!-- MoviesInterceptor&#45;&gt;AppModule -->
<g id="edge21" class="edge">
<title>MoviesInterceptor&#45;&gt;AppModule</title>
<path fill="none" stroke="black" d="M106,-122.15C106,-145.76 106,-184 106,-184 106,-184 1432.98,-184 1432.98,-184"/>
<polygon fill="black" stroke="black" points="1432.98,-187.5 1442.98,-184 1432.98,-180.5 1432.98,-187.5"/>
</g>
<!-- ProfileComponent -->
<g id="node23" class="node">
<title>ProfileComponent</title>
<polygon fill="#ffffb3" stroke="black" points="3229.93,-122 3110.07,-122 3110.07,-86 3229.93,-86 3229.93,-122"/>
<text text-anchor="middle" x="3170" y="-99.8" font-family="Times,serif" font-size="14.00">ProfileComponent</text>
</g>
<!-- SettingModule -->
<g id="node24" class="node">
<title>SettingModule</title>
<polygon fill="#8dd3c7" stroke="black" points="3141.72,-187 3138.72,-191 3117.72,-191 3114.72,-187 3042.28,-187 3042.28,-151 3141.72,-151 3141.72,-187"/>
<text text-anchor="middle" x="3092" y="-164.8" font-family="Times,serif" font-size="14.00">SettingModule</text>
</g>
<!-- ProfileComponent&#45;&gt;SettingModule -->
<g id="edge22" class="edge">
<title>ProfileComponent&#45;&gt;SettingModule</title>
<path fill="none" stroke="black" d="M3125.95,-122.11C3125.95,-122.11 3125.95,-140.99 3125.95,-140.99"/>
<polygon fill="black" stroke="black" points="3122.45,-140.99 3125.95,-150.99 3129.45,-140.99 3122.45,-140.99"/>
</g>
<!-- SettingRoutingModule -->
<g id="node25" class="node">
<title>SettingRoutingModule</title>
<polygon fill="#8dd3c7" stroke="black" points="3086.34,-122 3083.34,-126 3062.34,-126 3059.34,-122 2941.66,-122 2941.66,-86 3086.34,-86 3086.34,-122"/>
<text text-anchor="middle" x="3014" y="-99.8" font-family="Times,serif" font-size="14.00">SettingRoutingModule</text>
</g>
<!-- SettingRoutingModule&#45;&gt;SettingModule -->
<g id="edge23" class="edge">
<title>SettingRoutingModule&#45;&gt;SettingModule</title>
<path fill="none" stroke="black" d="M3064.28,-122.11C3064.28,-122.11 3064.28,-140.99 3064.28,-140.99"/>
<polygon fill="black" stroke="black" points="3060.78,-140.99 3064.28,-150.99 3067.78,-140.99 3060.78,-140.99"/>
</g>
</g>
</svg>
